<svg width="258" height="41" viewBox="0 0 258 41" fill="none" xmlns="http://www.w3.org/2000/svg">
<path fill-rule="evenodd" clip-rule="evenodd" d="M0 5.89661L0.95203 8.05683C2.85609 10.217 4.76015 14.5375 7.61624 13.4574C9.5203 11.8372 12.3764 4.81651 14.2804 4.81651C17.1365 4.81651 19.9926 11.8372 21.8967 17.7778C24.7528 23.7184 26.6568 28.0388 29.5129 28.0388C32.369 28.0388 34.2731 23.7184 37.1292 22.0982C39.0332 20.478 41.8893 22.0982 43.7934 22.6382C46.6494 23.7184 49.5055 23.7184 51.4096 23.7184C54.2657 23.7184 56.1697 23.7184 59.0258 19.3979C61.8819 14.5375 63.786 5.89661 66.6421 2.11625C68.5461 -1.12407 71.4022 -0.0439648 73.3063 4.81651C76.1624 9.13693 79.0184 16.1576 80.9225 16.1576C83.7786 16.1576 85.6827 9.13693 88.5387 9.67698C90.4428 10.217 93.2989 18.8579 96.155 24.2584C98.059 29.1189 100.915 30.739 102.819 32.3592C105.675 33.9794 108.531 35.0595 110.435 30.199C113.292 24.7985 115.196 13.4574 118.052 7.51677C119.956 1.57619 122.812 1.57619 125.668 7.51677C127.572 13.4574 130.428 24.7985 132.332 24.2584C135.188 23.7184 138.044 10.217 139.948 11.2971C142.804 11.8372 144.708 26.4186 147.565 28.5788C149.469 30.739 152.325 20.478 155.181 17.7778C157.085 14.5375 159.941 19.3979 161.845 18.3178C164.701 17.7778 167.557 11.8372 169.461 13.4574C172.317 14.5375 174.221 23.7184 177.077 23.7184C178.982 23.7184 181.838 14.5375 184.694 11.2971C186.598 7.51677 189.454 9.13693 191.358 9.67698C194.214 10.217 196.118 10.217 198.974 9.67698C201.83 9.13693 203.734 7.51677 206.59 6.97672C208.494 5.89661 211.351 5.89661 214.207 8.05683C216.111 10.217 218.967 14.5375 220.871 15.6176C223.727 16.1576 225.631 13.4574 228.487 13.9974C231.343 14.5375 233.247 19.3979 236.103 17.7778C238.007 16.1576 240.863 9.13693 243.72 7.51677C245.624 5.89661 248.48 10.217 250.384 12.3772C253.24 14.5375 255.144 14.5375 257.048 14.5375H258V41H257.048C255.144 41 253.24 41 250.384 41C248.48 41 245.624 41 243.72 41C240.863 41 238.007 41 236.103 41C233.247 41 231.343 41 228.487 41C225.631 41 223.727 41 220.871 41C218.967 41 216.111 41 214.207 41C211.351 41 208.494 41 206.59 41C203.734 41 201.83 41 198.974 41C196.118 41 194.214 41 191.358 41C189.454 41 186.598 41 184.694 41C181.838 41 178.982 41 177.077 41C174.221 41 172.317 41 169.461 41C167.557 41 164.701 41 161.845 41C159.941 41 157.085 41 155.181 41C152.325 41 149.469 41 147.565 41C144.708 41 142.804 41 139.948 41C138.044 41 135.188 41 132.332 41C130.428 41 127.572 41 125.668 41C122.812 41 119.956 41 118.052 41C115.196 41 113.292 41 110.435 41C108.531 41 105.675 41 102.819 41C100.915 41 98.059 41 96.155 41C93.2989 41 90.4428 41 88.5387 41C85.6827 41 83.7786 41 80.9225 41C79.0184 41 76.1624 41 73.3063 41C71.4022 41 68.5461 41 66.6421 41C63.786 41 61.8819 41 59.0258 41C56.1697 41 54.2657 41 51.4096 41C49.5055 41 46.6494 41 43.7934 41C41.8893 41 39.0332 41 37.1292 41C34.2731 41 32.369 41 29.5129 41C26.6568 41 24.7528 41 21.8967 41C19.9926 41 17.1365 41 14.2804 41C12.3764 41 9.5203 41 7.61624 41C4.76015 41 2.85609 41 0.95203 41H0V5.89661Z" fill="url(#paint0_linear_55_1095)"/>
<defs>
<linearGradient id="paint0_linear_55_1095" x1="129" y1="0.264038" x2="129" y2="41" gradientUnits="userSpaceOnUse">
<stop stop-color="#B0B0B0"/>
<stop offset="1" stop-color="#B0B0B0" stop-opacity="0"/>
</linearGradient>
</defs>
</svg>
