<svg width="258" height="37" viewBox="0 0 258 37" fill="none" xmlns="http://www.w3.org/2000/svg">
<path fill-rule="evenodd" clip-rule="evenodd" d="M0 7.75161L0.95203 8.65156C1.90406 9.10153 3.80812 10.4515 5.71218 14.5012C7.61624 19.001 10.4723 26.2006 12.3764 26.2006C14.2804 26.2006 16.1845 19.001 18.0886 13.1513C19.9926 7.75161 21.8967 4.1518 23.8007 7.75161C25.7048 11.3514 27.6089 22.6008 30.4649 28.4505C32.369 34.7501 34.2731 35.6501 36.1771 30.2504C38.0812 24.8507 39.9852 12.7013 41.8893 9.55151C43.7934 6.85166 45.6974 12.7013 47.6015 14.9512C50.4576 17.6511 52.3616 16.3011 54.2657 16.7511C56.1697 17.6511 58.0738 19.9009 59.9779 18.101C61.8819 16.3011 63.786 10.4515 65.69 12.2514C67.5941 14.0513 70.4502 23.5007 72.3542 24.8507C74.2583 26.2006 76.1624 19.001 78.0664 16.3011C79.9705 14.0513 81.8745 16.3011 83.7786 19.001C85.6827 21.2509 87.5867 23.5007 90.4428 26.2006C92.3469 28.4505 94.2509 31.1503 96.155 32.0503C98.059 33.4002 99.9631 33.4002 101.867 28.9004C103.771 24.8507 105.675 16.3011 107.579 16.3011C110.435 16.3011 112.339 24.8507 114.244 27.1005C116.148 29.8004 118.052 26.2006 119.956 22.6008C121.86 19.001 123.764 14.9512 125.668 16.3011C127.572 17.6511 130.428 23.5007 132.332 24.8507C134.236 26.2006 136.14 22.6008 138.044 18.101C139.948 14.0513 141.852 9.10153 143.756 11.3514C145.661 14.0513 147.565 23.5007 150.421 24.8507C152.325 26.2006 154.229 19.001 156.133 19.001C158.037 19.001 159.941 26.2006 161.845 26.2006C163.749 26.2006 165.653 19.001 167.557 16.3011C170.413 14.0513 172.317 16.3011 174.221 14.5012C176.125 12.7013 178.03 6.85166 179.934 8.65156C181.838 10.4515 183.742 19.9009 185.646 23.5007C187.55 27.1005 190.406 24.8507 192.31 25.3006C194.214 26.2006 196.118 29.8004 198.022 28.4505C199.926 27.1005 201.83 21.2509 203.734 21.2509C205.638 21.2509 207.542 27.1005 210.399 30.2504C212.303 33.4002 214.207 33.4002 216.111 28.4505C218.015 23.5007 219.919 14.0513 221.823 10.4515C223.727 6.85166 225.631 9.10153 227.535 11.3514C230.391 14.0513 232.295 16.3011 234.199 17.6511C236.103 19.001 238.007 19.001 239.911 21.2509C241.816 23.5007 243.72 28.4505 245.624 31.1503C247.528 33.4002 250.384 33.4002 252.288 28.0005C254.192 22.6008 256.096 11.3514 257.048 5.95171L258 0.552002V37H257.048C256.096 37 254.192 37 252.288 37C250.384 37 247.528 37 245.624 37C243.72 37 241.816 37 239.911 37C238.007 37 236.103 37 234.199 37C232.295 37 230.391 37 227.535 37C225.631 37 223.727 37 221.823 37C219.919 37 218.015 37 216.111 37C214.207 37 212.303 37 210.399 37C207.542 37 205.638 37 203.734 37C201.83 37 199.926 37 198.022 37C196.118 37 194.214 37 192.31 37C190.406 37 187.55 37 185.646 37C183.742 37 181.838 37 179.934 37C178.03 37 176.125 37 174.221 37C172.317 37 170.413 37 167.557 37C165.653 37 163.749 37 161.845 37C159.941 37 158.037 37 156.133 37C154.229 37 152.325 37 150.421 37C147.565 37 145.661 37 143.756 37C141.852 37 139.948 37 138.044 37C136.14 37 134.236 37 132.332 37C130.428 37 127.572 37 125.668 37C123.764 37 121.86 37 119.956 37C118.052 37 116.148 37 114.244 37C112.339 37 110.435 37 107.579 37C105.675 37 103.771 37 101.867 37C99.9631 37 98.059 37 96.155 37C94.2509 37 92.3469 37 90.4428 37C87.5867 37 85.6827 37 83.7786 37C81.8745 37 79.9705 37 78.0664 37C76.1624 37 74.2583 37 72.3542 37C70.4502 37 67.5941 37 65.69 37C63.786 37 61.8819 37 59.9779 37C58.0738 37 56.1697 37 54.2657 37C52.3616 37 50.4576 37 47.6015 37C45.6974 37 43.7934 37 41.8893 37C39.9852 37 38.0812 37 36.1771 37C34.2731 37 32.369 37 30.4649 37C27.6089 37 25.7048 37 23.8007 37C21.8967 37 19.9926 37 18.0886 37C16.1845 37 14.2804 37 12.3764 37C10.4723 37 7.61624 37 5.71218 37C3.80812 37 1.90406 37 0.95203 37H0V7.75161Z" fill="url(#paint0_linear_55_1097)"/>
<defs>
<linearGradient id="paint0_linear_55_1097" x1="129" y1="0.552002" x2="129" y2="37" gradientUnits="userSpaceOnUse">
<stop stop-color="#38FFE3"/>
<stop offset="1" stop-color="#00A991" stop-opacity="0"/>
</linearGradient>
</defs>
</svg>
