<svg width="258" height="43" viewBox="0 0 258 43" fill="none" xmlns="http://www.w3.org/2000/svg">
<path fill-rule="evenodd" clip-rule="evenodd" d="M0 25.605L1.935 26.3037C3.655 27.0025 7.525 28.4 11.18 27.7012C15.05 27.0025 18.705 24.2075 22.36 21.4125C26.23 18.6175 29.885 15.8225 33.755 15.1237C37.41 14.425 41.065 15.8225 44.935 15.1237C48.59 14.425 52.245 11.63 56.115 15.1237C59.77 18.6175 63.64 28.4 67.295 31.8937C70.95 35.3875 74.82 32.5925 78.475 31.8937C82.345 31.195 86 32.5925 89.655 33.2912C93.525 33.99 97.18 33.99 101.05 30.4962C104.705 27.0025 108.36 20.015 112.23 21.4125C115.885 22.81 119.755 32.5925 123.41 33.2912C127.065 33.99 130.935 25.605 134.59 20.7137C138.245 15.8225 142.115 14.425 145.77 17.9187C149.64 21.4125 153.295 29.7975 156.95 34.6887C160.82 39.58 164.475 40.9775 168.345 37.4837C172 33.99 175.655 25.605 179.525 18.6175C183.18 11.63 187.05 6.03995 190.705 6.03995C194.36 6.03995 198.23 11.63 201.885 13.7262C205.755 15.8225 209.41 14.425 213.065 13.0275C216.935 11.63 220.59 10.2325 224.245 14.425C228.115 18.6175 231.77 28.4 235.64 31.195C239.295 33.99 242.95 29.7975 246.82 23.5087C250.475 17.22 254.345 8.83495 256.065 4.64245L258 0.449951V42.375H256.065C254.345 42.375 250.475 42.375 246.82 42.375C242.95 42.375 239.295 42.375 235.64 42.375C231.77 42.375 228.115 42.375 224.245 42.375C220.59 42.375 216.935 42.375 213.065 42.375C209.41 42.375 205.755 42.375 201.885 42.375C198.23 42.375 194.36 42.375 190.705 42.375C187.05 42.375 183.18 42.375 179.525 42.375C175.655 42.375 172 42.375 168.345 42.375C164.475 42.375 160.82 42.375 156.95 42.375C153.295 42.375 149.64 42.375 145.77 42.375C142.115 42.375 138.245 42.375 134.59 42.375C130.935 42.375 127.065 42.375 123.41 42.375C119.755 42.375 115.885 42.375 112.23 42.375C108.36 42.375 104.705 42.375 101.05 42.375C97.18 42.375 93.525 42.375 89.655 42.375C86 42.375 82.345 42.375 78.475 42.375C74.82 42.375 70.95 42.375 67.295 42.375C63.64 42.375 59.77 42.375 56.115 42.375C52.245 42.375 48.59 42.375 44.935 42.375C41.065 42.375 37.41 42.375 33.755 42.375C29.885 42.375 26.23 42.375 22.36 42.375C18.705 42.375 15.05 42.375 11.18 42.375C7.525 42.375 3.655 42.375 1.935 42.375H0V25.605Z" fill="url(#paint0_linear_55_1061)"/>
<defs>
<linearGradient id="paint0_linear_55_1061" x1="129" y1="0.449951" x2="129" y2="42.375" gradientUnits="userSpaceOnUse">
<stop stop-color="#BDA9FF"/>
<stop offset="1" stop-color="#DACEFF" stop-opacity="0"/>
</linearGradient>
</defs>
</svg>
