<svg width="258" height="44" viewBox="0 0 258 44" fill="none" xmlns="http://www.w3.org/2000/svg">
<path fill-rule="evenodd" clip-rule="evenodd" d="M0 0.335938L4.76015 6.79731C9.5203 13.2587 19.0406 25.594 28.5609 29.1184C38.0812 32.0554 47.6015 25.594 57.1218 19.72C66.6421 13.2587 76.1624 6.79731 85.6827 6.79731C95.2029 6.79731 104.723 13.2587 114.244 17.9579C123.764 22.657 134.236 25.594 143.756 26.7688C153.277 27.3562 162.797 25.594 172.317 27.3562C181.838 29.1184 191.358 33.8176 200.878 31.468C210.399 29.1184 219.919 19.72 229.439 15.6083C238.959 11.4965 248.48 13.2587 253.24 13.8461L258 14.4335V43.2159H253.24C248.48 43.2159 238.959 43.2159 229.439 43.2159C219.919 43.2159 210.399 43.2159 200.878 43.2159C191.358 43.2159 181.838 43.2159 172.317 43.2159C162.797 43.2159 153.277 43.2159 143.756 43.2159C134.236 43.2159 123.764 43.2159 114.244 43.2159C104.723 43.2159 95.2029 43.2159 85.6827 43.2159C76.1624 43.2159 66.6421 43.2159 57.1218 43.2159C47.6015 43.2159 38.0812 43.2159 28.5609 43.2159C19.0406 43.2159 9.5203 43.2159 4.76015 43.2159H0V0.335938Z" fill="url(#paint0_linear_55_1094)"/>
<defs>
<linearGradient id="paint0_linear_55_1094" x1="129" y1="0.335937" x2="129" y2="43.2159" gradientUnits="userSpaceOnUse">
<stop stop-color="#FF0000"/>
<stop offset="0.0001" stop-color="#FBA4A4"/>
<stop offset="1" stop-color="#F03535" stop-opacity="0"/>
</linearGradient>
</defs>
</svg>
